<mxfile host="app.diagrams.net" agent="Mozilla/5.0 (Windows NT 10.0; Win64; x64) AppleWebKit/537.36 (KHTML, like Gecko) Chrome/132.0.0.0 Safari/537.36 Edg/132.0.0.0" version="26.0.11">
  <diagram name="Page-1" id="CE5dXkls7thtzY6Q8hrG">
    <mxGraphModel dx="1389" dy="764" grid="1" gridSize="10" guides="1" tooltips="1" connect="1" arrows="1" fold="1" page="1" pageScale="1" pageWidth="850" pageHeight="1100" math="0" shadow="0">
      <root>
        <mxCell id="0" />
        <mxCell id="1" parent="0" />
        <mxCell id="5ZlpCNoxPAJ0hlK538ie-11" value="" style="verticalLabelPosition=bottom;shadow=0;dashed=0;align=center;verticalAlign=top;shape=mxgraph.electrical.logic_gates.inverter_2;textShadow=0;labelBorderColor=none;labelBackgroundColor=none;html=1;fillColor=#e1d5e7;strokeColor=#9673a6;" vertex="1" parent="1">
          <mxGeometry x="370" y="220" width="100" height="60" as="geometry" />
        </mxCell>
        <mxCell id="5ZlpCNoxPAJ0hlK538ie-12" value="" style="verticalLabelPosition=bottom;shadow=0;dashed=0;align=center;verticalAlign=top;shape=mxgraph.electrical.logic_gates.logic_gate;operation=and;textShadow=0;labelBorderColor=none;labelBackgroundColor=none;html=1;fillColor=#e1d5e7;strokeColor=#9673a6;" vertex="1" parent="1">
          <mxGeometry x="210" y="220" width="100" height="60" as="geometry" />
        </mxCell>
        <mxCell id="5ZlpCNoxPAJ0hlK538ie-13" value="" style="edgeStyle=orthogonalEdgeStyle;rounded=0;orthogonalLoop=1;jettySize=auto;exitX=1;exitY=0.5;exitDx=0;exitDy=0;exitPerimeter=0;entryX=0.07;entryY=0.5;entryDx=0;entryDy=0;entryPerimeter=0;textShadow=0;labelBorderColor=none;labelBackgroundColor=none;html=1;fillColor=#e1d5e7;strokeColor=#9673a6;" edge="1" parent="1" source="5ZlpCNoxPAJ0hlK538ie-12" target="5ZlpCNoxPAJ0hlK538ie-11">
          <mxGeometry relative="1" as="geometry" />
        </mxCell>
        <mxCell id="5ZlpCNoxPAJ0hlK538ie-14" value="a" style="text;align=center;verticalAlign=middle;resizable=0;points=[];autosize=1;strokeColor=#9673a6;fillColor=#e1d5e7;textShadow=0;labelBorderColor=none;labelBackgroundColor=none;html=1;" vertex="1" parent="1">
          <mxGeometry x="30" y="210" width="30" height="30" as="geometry" />
        </mxCell>
        <mxCell id="5ZlpCNoxPAJ0hlK538ie-20" value="" style="edgeStyle=orthogonalEdgeStyle;rounded=0;orthogonalLoop=1;jettySize=auto;entryX=0;entryY=0.25;entryDx=0;entryDy=0;entryPerimeter=0;textShadow=0;labelBorderColor=none;labelBackgroundColor=none;html=1;fillColor=#e1d5e7;strokeColor=#9673a6;" edge="1" parent="1" source="5ZlpCNoxPAJ0hlK538ie-14" target="5ZlpCNoxPAJ0hlK538ie-12">
          <mxGeometry relative="1" as="geometry" />
        </mxCell>
        <mxCell id="5ZlpCNoxPAJ0hlK538ie-23" value="b" style="text;align=center;verticalAlign=middle;resizable=0;points=[];autosize=1;strokeColor=#9673a6;fillColor=#e1d5e7;textShadow=0;labelBorderColor=none;labelBackgroundColor=none;html=1;" vertex="1" parent="1">
          <mxGeometry x="30" y="250" width="30" height="30" as="geometry" />
        </mxCell>
        <mxCell id="5ZlpCNoxPAJ0hlK538ie-24" value="" style="edgeStyle=orthogonalEdgeStyle;rounded=0;orthogonalLoop=1;jettySize=auto;entryX=0;entryY=0.75;entryDx=0;entryDy=0;entryPerimeter=0;textShadow=0;labelBorderColor=none;labelBackgroundColor=none;html=1;fillColor=#e1d5e7;strokeColor=#9673a6;" edge="1" parent="1" source="5ZlpCNoxPAJ0hlK538ie-23" target="5ZlpCNoxPAJ0hlK538ie-12">
          <mxGeometry relative="1" as="geometry" />
        </mxCell>
        <mxCell id="5ZlpCNoxPAJ0hlK538ie-25" value="" style="verticalLabelPosition=bottom;shadow=0;dashed=0;align=center;verticalAlign=top;shape=mxgraph.electrical.logic_gates.logic_gate;operation=xor;textShadow=0;labelBorderColor=none;labelBackgroundColor=none;html=1;fillColor=#e1d5e7;strokeColor=#9673a6;" vertex="1" parent="1">
          <mxGeometry x="510" y="280" width="100" height="60" as="geometry" />
        </mxCell>
        <mxCell id="5ZlpCNoxPAJ0hlK538ie-26" value="" style="edgeStyle=orthogonalEdgeStyle;rounded=0;orthogonalLoop=1;jettySize=auto;entryX=0;entryY=0.25;entryDx=0;entryDy=0;entryPerimeter=0;textShadow=0;labelBorderColor=none;labelBackgroundColor=none;html=1;fillColor=#e1d5e7;strokeColor=#9673a6;" edge="1" parent="1" source="5ZlpCNoxPAJ0hlK538ie-11" target="5ZlpCNoxPAJ0hlK538ie-25">
          <mxGeometry relative="1" as="geometry" />
        </mxCell>
        <mxCell id="5ZlpCNoxPAJ0hlK538ie-27" value="" style="verticalLabelPosition=bottom;shadow=0;dashed=0;align=center;verticalAlign=top;shape=mxgraph.electrical.logic_gates.logic_gate;operation=or;textShadow=0;labelBorderColor=none;labelBackgroundColor=none;html=1;fillColor=#e1d5e7;strokeColor=#9673a6;" vertex="1" parent="1">
          <mxGeometry x="260" y="355" width="100" height="60" as="geometry" />
        </mxCell>
        <mxCell id="5ZlpCNoxPAJ0hlK538ie-28" value="" style="edgeStyle=orthogonalEdgeStyle;rounded=0;orthogonalLoop=1;jettySize=auto;entryX=0;entryY=0.25;entryDx=0;entryDy=0;entryPerimeter=0;textShadow=0;labelBorderColor=none;labelBackgroundColor=none;html=1;fillColor=#e1d5e7;strokeColor=#9673a6;" edge="1" parent="1" source="5ZlpCNoxPAJ0hlK538ie-14" target="5ZlpCNoxPAJ0hlK538ie-27">
          <mxGeometry relative="1" as="geometry">
            <Array as="points">
              <mxPoint x="90" y="225" />
              <mxPoint x="90" y="370" />
            </Array>
          </mxGeometry>
        </mxCell>
        <mxCell id="5ZlpCNoxPAJ0hlK538ie-29" value="" style="edgeStyle=orthogonalEdgeStyle;rounded=0;orthogonalLoop=1;jettySize=auto;entryX=0;entryY=0.75;entryDx=0;entryDy=0;entryPerimeter=0;textShadow=0;labelBorderColor=none;labelBackgroundColor=none;html=1;fillColor=#e1d5e7;strokeColor=#9673a6;" edge="1" parent="1" source="5ZlpCNoxPAJ0hlK538ie-23" target="5ZlpCNoxPAJ0hlK538ie-27">
          <mxGeometry relative="1" as="geometry">
            <Array as="points">
              <mxPoint x="45" y="400" />
            </Array>
          </mxGeometry>
        </mxCell>
        <mxCell id="5ZlpCNoxPAJ0hlK538ie-30" value="" style="edgeStyle=orthogonalEdgeStyle;rounded=0;orthogonalLoop=1;jettySize=auto;entryX=0;entryY=0.75;entryDx=0;entryDy=0;entryPerimeter=0;textShadow=0;labelBorderColor=none;labelBackgroundColor=none;html=1;fillColor=#e1d5e7;strokeColor=#9673a6;" edge="1" parent="1" source="5ZlpCNoxPAJ0hlK538ie-27" target="5ZlpCNoxPAJ0hlK538ie-25">
          <mxGeometry relative="1" as="geometry" />
        </mxCell>
        <mxCell id="5ZlpCNoxPAJ0hlK538ie-41" value="" style="edgeStyle=orthogonalEdgeStyle;rounded=0;orthogonalLoop=1;jettySize=auto;textShadow=0;labelBorderColor=none;labelBackgroundColor=none;html=1;fillColor=#e1d5e7;strokeColor=#9673a6;" edge="1" parent="1" source="5ZlpCNoxPAJ0hlK538ie-32" target="5ZlpCNoxPAJ0hlK538ie-39">
          <mxGeometry relative="1" as="geometry" />
        </mxCell>
        <mxCell id="5ZlpCNoxPAJ0hlK538ie-32" value="" style="verticalLabelPosition=bottom;shadow=0;dashed=0;align=center;verticalAlign=top;shape=mxgraph.electrical.logic_gates.logic_gate;operation=and;textShadow=0;labelBorderColor=none;labelBackgroundColor=none;html=1;fillColor=#e1d5e7;strokeColor=#9673a6;" vertex="1" parent="1">
          <mxGeometry x="650" y="340" width="100" height="60" as="geometry" />
        </mxCell>
        <mxCell id="5ZlpCNoxPAJ0hlK538ie-37" value="" style="edgeStyle=orthogonalEdgeStyle;rounded=0;orthogonalLoop=1;jettySize=auto;entryX=0;entryY=0.25;entryDx=0;entryDy=0;entryPerimeter=0;textShadow=0;labelBorderColor=none;labelBackgroundColor=none;html=1;fillColor=#e1d5e7;strokeColor=#9673a6;" edge="1" parent="1" source="5ZlpCNoxPAJ0hlK538ie-25" target="5ZlpCNoxPAJ0hlK538ie-32">
          <mxGeometry relative="1" as="geometry" />
        </mxCell>
        <mxCell id="5ZlpCNoxPAJ0hlK538ie-39" value="y" style="text;html=1;align=center;verticalAlign=middle;resizable=0;points=[];autosize=1;strokeColor=none;fillColor=none;" vertex="1" parent="1">
          <mxGeometry x="810" y="355" width="30" height="30" as="geometry" />
        </mxCell>
        <mxCell id="5ZlpCNoxPAJ0hlK538ie-44" value="" style="edgeStyle=orthogonalEdgeStyle;rounded=0;orthogonalLoop=1;jettySize=auto;textShadow=0;labelBorderColor=none;labelBackgroundColor=none;html=1;fillColor=#e1d5e7;strokeColor=#9673a6;" edge="1" parent="1" source="5ZlpCNoxPAJ0hlK538ie-42" target="5ZlpCNoxPAJ0hlK538ie-43">
          <mxGeometry relative="1" as="geometry" />
        </mxCell>
        <mxCell id="5ZlpCNoxPAJ0hlK538ie-42" value="c" style="text;align=center;verticalAlign=middle;resizable=0;points=[];autosize=1;strokeColor=#9673a6;fillColor=#e1d5e7;textShadow=0;labelBorderColor=none;labelBackgroundColor=none;html=1;" vertex="1" parent="1">
          <mxGeometry x="30" y="465" width="30" height="30" as="geometry" />
        </mxCell>
        <mxCell id="5ZlpCNoxPAJ0hlK538ie-43" value="" style="verticalLabelPosition=bottom;shadow=0;dashed=0;align=center;verticalAlign=top;shape=mxgraph.electrical.logic_gates.inverter_2;textShadow=0;labelBorderColor=none;labelBackgroundColor=none;html=1;fillColor=#e1d5e7;strokeColor=#9673a6;" vertex="1" parent="1">
          <mxGeometry x="150" y="450" width="100" height="60" as="geometry" />
        </mxCell>
        <mxCell id="5ZlpCNoxPAJ0hlK538ie-45" value="" style="edgeStyle=orthogonalEdgeStyle;rounded=0;orthogonalLoop=1;jettySize=auto;entryX=0;entryY=0.75;entryDx=0;entryDy=0;entryPerimeter=0;textShadow=0;labelBorderColor=none;labelBackgroundColor=none;html=1;fillColor=#e1d5e7;strokeColor=#9673a6;" edge="1" parent="1" source="5ZlpCNoxPAJ0hlK538ie-27" target="5ZlpCNoxPAJ0hlK538ie-32">
          <mxGeometry relative="1" as="geometry" />
        </mxCell>
        <mxCell id="5ZlpCNoxPAJ0hlK538ie-46" value="" style="verticalLabelPosition=bottom;shadow=0;dashed=0;align=center;verticalAlign=top;shape=mxgraph.electrical.logic_gates.logic_gate;operation=xor;textShadow=0;labelBorderColor=none;labelBackgroundColor=none;html=1;fillColor=#e1d5e7;strokeColor=#9673a6;" vertex="1" parent="1">
          <mxGeometry x="510" y="435" width="100" height="60" as="geometry" />
        </mxCell>
        <mxCell id="5ZlpCNoxPAJ0hlK538ie-47" value="" style="edgeStyle=orthogonalEdgeStyle;rounded=0;orthogonalLoop=1;jettySize=auto;entryX=0;entryY=0.25;entryDx=0;entryDy=0;entryPerimeter=0;textShadow=0;labelBorderColor=none;labelBackgroundColor=none;html=1;fillColor=#e1d5e7;strokeColor=#9673a6;" edge="1" parent="1" source="5ZlpCNoxPAJ0hlK538ie-27" target="5ZlpCNoxPAJ0hlK538ie-46">
          <mxGeometry relative="1" as="geometry" />
        </mxCell>
        <mxCell id="5ZlpCNoxPAJ0hlK538ie-48" value="" style="edgeStyle=orthogonalEdgeStyle;rounded=0;orthogonalLoop=1;jettySize=auto;entryX=0;entryY=0.75;entryDx=0;entryDy=0;entryPerimeter=0;textShadow=0;labelBorderColor=none;labelBackgroundColor=none;html=1;fillColor=#e1d5e7;strokeColor=#9673a6;" edge="1" parent="1" source="5ZlpCNoxPAJ0hlK538ie-43" target="5ZlpCNoxPAJ0hlK538ie-46">
          <mxGeometry relative="1" as="geometry" />
        </mxCell>
        <mxCell id="5ZlpCNoxPAJ0hlK538ie-49" value="x" style="text;html=1;align=center;verticalAlign=middle;resizable=0;points=[];autosize=1;strokeColor=none;fillColor=none;" vertex="1" parent="1">
          <mxGeometry x="810" y="450" width="30" height="30" as="geometry" />
        </mxCell>
        <mxCell id="5ZlpCNoxPAJ0hlK538ie-50" value="" style="edgeStyle=orthogonalEdgeStyle;rounded=0;orthogonalLoop=1;jettySize=auto;entryX=0.029;entryY=0.533;entryDx=0;entryDy=0;entryPerimeter=0;textShadow=0;labelBorderColor=none;labelBackgroundColor=none;html=1;fillColor=#e1d5e7;strokeColor=#9673a6;" edge="1" parent="1" source="5ZlpCNoxPAJ0hlK538ie-46" target="5ZlpCNoxPAJ0hlK538ie-49">
          <mxGeometry relative="1" as="geometry" />
        </mxCell>
      </root>
    </mxGraphModel>
  </diagram>
</mxfile>
